<svg xmlns="http://www.w3.org/2000/svg" xmlns:xlink="http://www.w3.org/1999/xlink" viewBox="0 0 3000 2000" width="507" height="338" preserveAspectRatio="xMidYMid meet" style="width: 100%; height: 100%; transform: translate3d(0px, 0px, 0px); content-visibility: visible; background-color: rgb(255, 255, 255);"><defs><clipPath id="__lottie_element_2"><rect width="3000" height="2000" x="0" y="0"/></clipPath></defs><g clip-path="url(#__lottie_element_2)"><g transform="matrix(1,0,0,1,1019.968994140625,1093.488037109375)" opacity="1" style="display: block;"><g opacity="1" transform="matrix(1,0,0,1,371.92401123046875,309.6180114746094)"><path fill="rgb(51,53,207)" fill-opacity="1" d=" M236.1179962158203,-300.406005859375 C236.1179962158203,-300.406005859375 88.51300048828125,-309.3680114746094 88.51300048828125,-309.3680114746094 C88.51300048828125,-309.3680114746094 -104.0739974975586,-258.48199462890625 -104.0739974975586,-258.48199462890625 C-171.61099243164062,-240.64199829101562 -226.447998046875,-191.3699951171875 -251.33900451660156,-126.1259994506836 C-251.33900451660156,-126.1259994506836 -371.67401123046875,189.00399780273438 -371.67401123046875,189.00399780273438 C-371.67401123046875,189.00399780273438 -135.20899963378906,-20.530000686645508 -135.20899963378906,-20.530000686645508 C-135.20899963378906,-20.530000686645508 -70.0790023803711,309.3680114746094 -70.0790023803711,309.3680114746094 C-70.0790023803711,309.3680114746094 371.67401123046875,307.9519958496094 371.67401123046875,307.9519958496094 C371.67401123046875,307.9519958496094 370.25799560546875,-150.08399963378906 370.25799560546875,-150.08399963378906 C370.25799560546875,-150.08399963378906 236.1179962158203,-300.406005859375 236.1179962158203,-300.406005859375z"/></g><g opacity="1" transform="matrix(1,0,0,1,500.18798828125,153.93899536132812)"><path fill="rgb(197,197,255)" fill-opacity="1" d=" M-9.906999588012695,26.28700065612793 C-36.65700149536133,26.28700065612793 -61.63600158691406,15.869000434875488 -78.15899658203125,-2.5409998893737793 C-78.15899658203125,-2.5409998893737793 -74.9990005493164,-5.376999855041504 -74.9990005493164,-5.376999855041504 C-57.31700134277344,14.321999549865723 -29.36400032043457,24.42799949645996 -0.26600000262260437,21.56800079345703 C30.92099952697754,18.541000366210938 58.17499923706055,1.100000023841858 74.51100158691406,-26.28700065612793 C74.51100158691406,-26.28700065612793 78.15899658203125,-24.10700035095215 78.15899658203125,-24.10700035095215 C61.124000549316406,4.447000026702881 32.691001892089844,22.638999938964844 0.14800000190734863,25.798999786376953 C-3.2230000495910645,26.12299919128418 -6.583000183105469,26.28700065612793 -9.906999588012695,26.28700065612793z"/></g><g opacity="1" transform="matrix(1,0,0,1,761.9219970703125,176.5030059814453)"><path fill="rgb(51,53,207)" fill-opacity="1" d=" M92.18499755859375,-13.399999618530273 C50.21799850463867,-101.66500091552734 -36.38999938964844,-160.11300659179688 -133.95799255371094,-166.05999755859375 C-133.95799255371094,-166.05999755859375 -153.8800048828125,-167.29100036621094 -153.8800048828125,-167.29100036621094 C-153.8800048828125,-167.29100036621094 -6.947999954223633,167.29100036621094 -6.947999954223633,167.29100036621094 C-6.947999954223633,167.29100036621094 153.8800048828125,107.58999633789062 153.8800048828125,107.58999633789062 C153.8800048828125,107.58999633789062 92.18499755859375,-13.399999618530273 92.18499755859375,-13.399999618530273z"/></g></g><g transform="matrix(0.9920036792755127,0.12620902061462402,-0.12620902061462402,0.9920036792755127,1260.316650390625,722.42724609375)" opacity="1" style="display: block;"><g opacity="1" transform="matrix(1,0,0,1,273.8110046386719,326.67999267578125)"><path fill="rgb(255,188,150)" fill-opacity="1" d=" M44.38800048828125,131.46400451660156 C16.099000930786133,145.14100646972656 -18.64699935913086,131.63400268554688 -32.875999450683594,101.39099884033203 C-32.875999450683594,101.39099884033203 -37.67599868774414,91.15399932861328 -37.67599868774414,91.15399932861328 C-37.67599868774414,91.15399932861328 -86.35399627685547,-12.276000022888184 -86.35399627685547,-12.276000022888184 C-86.35399627685547,-12.276000022888184 -116.12999725341797,-75.60800170898438 -116.12999725341797,-75.60800170898438 C-116.12999725341797,-75.60800170898438 27.73699951171875,-145.14100646972656 27.73699951171875,-145.14100646972656 C27.73699951171875,-145.14100646972656 90.38999938964844,-12.020999908447266 90.38999938964844,-12.020999908447266 C116.12999725341797,42.73099899291992 95.61399841308594,106.69999694824219 44.38800048828125,131.46400451660156z"/></g><g opacity="1" transform="matrix(1,0,0,1,251.36199951171875,352.760009765625)"><path fill="rgb(27,27,67)" fill-opacity="1" d=" M63.90599822998047,-65.0739974975586 C51.24800109863281,-3.3980000019073486 19.601999282836914,38.867000579833984 -15.227999687194824,65.0739974975586 C-15.227999687194824,65.0739974975586 -63.90599822998047,-38.35599899291992 -63.90599822998047,-38.35599899291992 C-63.90599822998047,-38.35599899291992 63.90599822998047,-65.0739974975586 63.90599822998047,-65.0739974975586z"/></g><g opacity="1" transform="matrix(1,0,0,1,200.6219940185547,239.4499969482422)"><path fill="rgb(255,188,150)" fill-opacity="1" d=" M131.52000427246094,-28.94300079345703 C131.52000427246094,45.53900146484375 89.5250015258789,96.59600067138672 36.25699996948242,122.91600036621094 C-18.56100082397461,150 -75.802001953125,45.9370002746582 -103.14199829101562,-23.632999420166016 C-131.52000427246094,-95.84300231933594 -53.39699935913086,-150 12.005999565124512,-150 C77.40899658203125,-150 131.52000427246094,-103.42500305175781 131.52000427246094,-28.94300079345703z"/></g><g opacity="1" transform="matrix(1,0,0,1,167.677001953125,106.08699798583984)"><path fill="rgb(27,27,67)" fill-opacity="1" d=" M167.427001953125,61.944000244140625 C161.05599975585938,-14.512999534606934 145.51600646972656,-86.78800201416016 74.68699645996094,-68.31500244140625 C47.7859992980957,-105.83599853515625 -64.7760009765625,-105.12799835205078 -92.38600158691406,-15.928000450134277 C-110.1969985961914,41.61600112915039 -178.18800354003906,49.62699890136719 -178.18800354003906,49.62699890136719 C-109.51799774169922,85.73200225830078 -35.452999114990234,92.31500244140625 52.74100112915039,25.131000518798828 C80.35099792480469,65.48400115966797 158.9320068359375,68.31600189208984 158.9320068359375,68.31600189208984 C158.9320068359375,68.31600189208984 167.427001953125,61.944000244140625 167.427001953125,61.944000244140625z"/></g><g opacity="1" transform="matrix(1,0,0,1,322.9169921875,199.6230010986328)"><path fill="rgb(255,188,150)" fill-opacity="1" d=" M34.17100143432617,4.382999897003174 C31.073999404907227,28.52400016784668 13.265000343322754,46.13100051879883 -5.60699987411499,43.71099853515625 C-24.479999542236328,41.290000915527344 -37.268001556396484,19.756999969482422 -34.172000885009766,-4.383999824523926 C-31.075000762939453,-28.524999618530273 -13.265999794006348,-46.13199996948242 5.60699987411499,-43.71099853515625 C24.479000091552734,-41.290000915527344 37.268001556396484,-19.757999420166016 34.17100143432617,4.382999897003174z"/></g><g opacity="1" transform="matrix(1,0,0,1,323.5989990234375,196.1479949951172)"><path fill="rgb(27,27,67)" fill-opacity="1" d=" M6.184999942779541,-14.767000198364258 C1.6109999418258667,-10.994999885559082 0.1080000028014183,-5.882999897003174 0.15600000321865082,-0.41999998688697815 C0.1899999976158142,2.2850000858306885 0.6179999709129333,5.0289998054504395 1.406999945640564,7.642000198364258 C2.2360000610351562,10.251999855041504 3.3510000705718994,12.718000411987305 5.235000133514404,14.885000228881836 C5.235000133514404,14.885000228881836 3.9719998836517334,17.0310001373291 3.9719998836517334,17.0310001373291 C0.47600001096725464,15.883999824523926 -2.134000062942505,12.940999984741211 -3.742000102996826,9.829999923706055 C-5.386000156402588,6.671999931335449 -6.184999942779541,3.1510000228881836 -6.184999942779541,-0.40400001406669617 C-6.159999847412109,-3.940999984741211 -5.361999988555908,-7.610000133514404 -3.388000011444092,-10.744999885559082 C-1.4809999465942383,-13.890000343322754 1.7139999866485596,-16.327999114990234 5.145999908447266,-17.0310001373291 C5.145999908447266,-17.0310001373291 6.184999942779541,-14.767000198364258 6.184999942779541,-14.767000198364258z"/></g></g><g transform="matrix(1,0,0,1,1019.968994140625,757.926025390625)" opacity="1" style="display: block;"><g opacity="1" transform="matrix(1,0,0,1,500.18798828125,489.50201416015625)"><path fill="rgb(197,197,255)" fill-opacity="1" d=" M-9.906999588012695,26.28700065612793 C-36.65700149536133,26.28700065612793 -61.63600158691406,15.869000434875488 -78.15899658203125,-2.5409998893737793 C-78.15899658203125,-2.5409998893737793 -74.9990005493164,-5.376999855041504 -74.9990005493164,-5.376999855041504 C-57.31700134277344,14.321999549865723 -29.36400032043457,24.42799949645996 -0.26600000262260437,21.56800079345703 C30.92099952697754,18.541000366210938 58.17499923706055,1.100000023841858 74.51100158691406,-26.28700065612793 C74.51100158691406,-26.28700065612793 78.15899658203125,-24.10700035095215 78.15899658203125,-24.10700035095215 C61.124000549316406,4.447000026702881 32.691001892089844,22.638999938964844 0.14800000190734863,25.798999786376953 C-3.2230000495910645,26.12299919128418 -6.583000183105469,26.28700065612793 -9.906999588012695,26.28700065612793z"/></g></g><g transform="matrix(0.9738108515739441,-0.22735971212387085,0.22735971212387085,0.9738108515739441,893.4974975585938,954.4869384765625)" opacity="1" style="display: block;"><g opacity="1" transform="matrix(1,0,0,1,170.2239990234375,381.01300048828125)"><path fill="rgb(255,188,150)" fill-opacity="1" d=" M150.3300018310547,-256.5140075683594 C148.73699951171875,-280.93798828125 152.98500061035156,-338.281005859375 138.1179962158203,-331.90899658203125 C123.2509994506836,-325.5379943847656 119.53399658203125,-242.71499633789062 119.53399658203125,-242.71499633789062 C119.53399658203125,-242.71499633789062 117.41000366210938,-380.76300048828125 101.48200225830078,-374.3919982910156 C85.5530014038086,-368.0199890136719 85.5530014038086,-268.20001220703125 50.5099983215332,-162.00999450683594 C50.5099983215332,-162.00999450683594 -146.2989959716797,253.63499450683594 -146.2989959716797,253.63499450683594 C-169.9739990234375,303.6340026855469 -140.14999389648438,362.53900146484375 -85.83799743652344,373.0509948730469 C-85.83799743652344,373.0509948730469 -85.83599853515625,373.0509948730469 -85.83599853515625,373.0509948730469 C-45.999000549316406,380.7619934082031 -6.300000190734863,359.1369934082031 8.848999977111816,321.4939880371094 C59.823001861572266,194.8350067138672 153.45199584960938,-78.50299835205078 162.54100036621094,-131.73899841308594 C169.9739990234375,-175.27699279785156 168.05599975585938,-194.1060028076172 165.18299865722656,-205.30099487304688 C160.43499755859375,-223.8000030517578 151.572998046875,-237.45599365234375 150.3300018310547,-256.5140075683594z"/></g><g opacity="1" transform="matrix(1,0,0,1,281.135986328125,129.37899780273438)"><path fill="rgb(210,133,114)" fill-opacity="1" d=" M-59.165000915527344,80.43699645996094 C-53.143001556396484,64.06199645996094 -49.20600128173828,46.946998596191406 -45.53900146484375,29.847999572753906 C-41.926998138427734,12.718000411987305 -38.88999938964844,-4.5370001792907715 -35.76900100708008,-21.783000946044922 C-35.76900100708008,-21.783000946044922 -26.540000915527344,-73.58899688720703 -26.540000915527344,-73.58899688720703 C-24.913999557495117,-82.22000122070312 -23.22800064086914,-90.84500122070312 -21.209999084472656,-99.43599700927734 C-20.194000244140625,-103.73200225830078 -19.10099983215332,-108.01699829101562 -17.73900032043457,-112.28199768066406 C-17.045000076293945,-114.41400146484375 -16.295000076293945,-116.54100036621094 -15.321000099182129,-118.66100311279297 C-14.845999717712402,-119.72000122070312 -14.269000053405762,-120.77999877929688 -13.564000129699707,-121.83999633789062 C-12.79800033569336,-122.84400177001953 -11.968999862670898,-124.11399841308594 -9.906000137329102,-124.75599670410156 C-9.906000137329102,-124.75599670410156 -10.062000274658203,-124.71299743652344 -10.062000274658203,-124.71299743652344 C-9.449999809265137,-124.83599853515625 -8.795000076293945,-124.90499877929688 -8.168000221252441,-124.91200256347656 C-7.574999809265137,-124.81999969482422 -6.989999771118164,-124.59600067138672 -6.427000045776367,-124.3759994506836 C-5.53000020980835,-123.83999633789062 -4.672999858856201,-123.15599822998047 -4.205999851226807,-122.48200225830078 C-3.0480000972747803,-121.11900329589844 -2.4000000953674316,-119.73100280761719 -1.7630000114440918,-118.34500122070312 C-0.5419999957084656,-115.57099914550781 0.3370000123977661,-112.78399658203125 1.0670000314712524,-109.98400115966797 C2.553999900817871,-104.38700103759766 3.5999999046325684,-98.75800323486328 4.506999969482422,-93.12000274658203 C6.281000137329102,-81.84100341796875 7.493000030517578,-70.52400207519531 8.4399995803833,-59.19300079345703 C10.277999877929688,-36.52799987792969 11.260000228881836,-13.814000129699707 11.038999557495117,8.946999549865723 C11.038999557495117,8.946999549865723 6.205999851226807,8.843000411987305 6.205999851226807,8.843000411987305 C6.736999988555908,-4.011000156402588 7.702000141143799,-16.766000747680664 9.15999984741211,-29.5310001373291 C10.706000328063965,-42.27299880981445 12.48799991607666,-55.0369987487793 16.499000549316406,-67.53600311279297 C17.597999572753906,-70.64399719238281 18.802000045776367,-73.74700164794922 20.648000717163086,-76.71700286865234 C21.621999740600586,-78.18000030517578 22.707000732421875,-79.65599822998047 24.32699966430664,-80.85399627685547 C25.854999542236328,-82.14600372314453 28.2450008392334,-82.76200103759766 30.429000854492188,-82.46499633789062 C30.940000534057617,-82.3489990234375 31.422000885009766,-82.16000366210938 31.91699981689453,-81.99600219726562 C32.426998138427734,-81.7750015258789 32.83700180053711,-81.78399658203125 33.48099899291992,-81.21800231933594 C33.77399826049805,-80.98500061035156 34.055999755859375,-80.73200225830078 34.314998626708984,-80.47200012207031 C34.54399871826172,-80.22200012207031 34.62200164794922,-80.0250015258789 34.779998779296875,-79.7969970703125 C35.03300094604492,-79.36399841308594 35.38199996948242,-78.88500213623047 35.52899932861328,-78.47899627685547 C36.28099822998047,-76.80000305175781 36.763999938964844,-75.17900085449219 37.17399978637695,-73.56300354003906 C38.007999420166016,-70.33499908447266 38.487998962402344,-67.13200378417969 38.95600128173828,-63.92100143432617 C40.61399841308594,-51.0880012512207 41.053001403808594,-38.24399948120117 40.94499969482422,-25.40999984741211 C40.90399932861328,-18.937999725341797 40.49599838256836,-12.657999992370605 41.05500030517578,-6.436999797821045 C41.560001373291016,-0.19499999284744263 42.70000076293945,5.993000030517578 44.31100082397461,12.07800006866455 C45.93299865722656,18.163999557495117 47.9900016784668,24.150999069213867 50.23699951171875,30.090999603271484 C52.53499984741211,35.97200012207031 54.840999603271484,42.20100021362305 56.12799835205078,48.540000915527344 C58.86600112915039,61.24700164794922 59.165000915527344,74.30799865722656 57.9900016784668,87.10399627685547 C56.803001403808594,99.91799926757812 54.301998138427734,112.5479965209961 50.95800018310547,124.91200256347656 C50.95800018310547,124.91200256347656 49.1150016784668,124.43099975585938 49.1150016784668,124.43099975585938 C52.209999084472656,112.09100341796875 54.45000076293945,99.53299713134766 55.3849983215332,86.89399719238281 C56.310001373291016,74.27300262451172 55.76100158691406,61.5099983215332 52.8849983215332,49.2760009765625 C51.499000549316406,43.111000061035156 49.375,37.314998626708984 46.97700119018555,31.33300018310547 C44.66899871826172,25.347000122070312 42.53200149536133,19.257999420166016 40.82500076293945,13.013999938964844 C39.12900161743164,6.76800012588501 37.902000427246094,0.3619999885559082 37.33599853515625,-6.124000072479248 C36.7140007019043,-12.63700008392334 37.09400177001953,-19.145000457763672 37.0890007019043,-25.433000564575195 C37.11800003051758,-38.124000549316406 36.59199905395508,-50.8650016784668 34.895999908447266,-63.35300064086914 C34.42499923706055,-66.4520034790039 33.93199920654297,-69.57099914550781 33.145999908447266,-72.52200317382812 C32.766998291015625,-73.99600219726562 32.305999755859375,-75.43800354003906 31.74799919128418,-76.6709976196289 C31.621000289916992,-77.01899719238281 31.44700050354004,-77.16400146484375 31.312999725341797,-77.427001953125 C31.156999588012695,-77.76100158691406 31.048999786376953,-77.78299713134766 31.048999786376953,-77.78299713134766 C31.16200065612793,-77.86299896240234 30.709999084472656,-77.9469985961914 30.492000579833984,-78.03099822998047 C30.229000091552734,-78.11000061035156 29.966999053955078,-78.23699951171875 29.711000442504883,-78.30500030517578 C27.827999114990234,-78.60600280761719 25.781999588012695,-76.94200134277344 24.263999938964844,-74.4219970703125 C22.746999740600586,-71.9530029296875 21.621999740600586,-69.06900024414062 20.618999481201172,-66.15799713134766 C16.882999420166016,-54.2859992980957 15.154000282287598,-41.59700012207031 13.720999717712402,-29.017000198364258 C12.359999656677246,-16.402000427246094 11.479999542236328,-3.6710000038146973 11.038000106811523,8.991999626159668 C11.038000106811523,8.991999626159668 6.205999851226807,8.887999534606934 6.205999851226807,8.887999534606934 C6.418000221252441,-13.678999900817871 5.676000118255615,-36.308998107910156 3.950000047683716,-58.83000183105469 C3.0759999752044678,-70.08899688720703 1.934999942779541,-81.33000183105469 0.25200000405311584,-92.4520034790039 C-0.6069999933242798,-98.00499725341797 -1.6069999933242798,-103.54100036621094 -3,-108.90599822998047 C-3.678999900817871,-111.59100341796875 -4.510000228881836,-114.22799682617188 -5.557000160217285,-116.64399719238281 C-6.074999809265137,-117.8280029296875 -6.681000232696533,-119.03399658203125 -7.370999813079834,-119.8239974975586 C-7.697999954223633,-120.3290023803711 -8.048999786376953,-120.47899627685547 -8.305000305175781,-120.70899963378906 C-8.413999557495117,-120.6989974975586 -8.491999626159668,-120.7750015258789 -8.579000473022461,-120.81900024414062 C-8.656999588012695,-120.75499725341797 -8.706000328063965,-120.75199890136719 -8.798999786376953,-120.8030014038086 C-8.798999786376953,-120.8030014038086 -8.956000328063965,-120.76000213623047 -8.956000328063965,-120.76000213623047 C-9.031999588012695,-120.76799774169922 -9.72700023651123,-120.25299835205078 -10.211000442504883,-119.5 C-10.718999862670898,-118.73600006103516 -11.211000442504883,-117.8759994506836 -11.63599967956543,-116.93699645996094 C-12.505000114440918,-115.0780029296875 -13.232000350952148,-113.06600189208984 -13.906000137329102,-111.03600311279297 C-15.236000061035156,-106.95500183105469 -16.33799934387207,-102.74500274658203 -17.36400032043457,-98.51599884033203 C-19.406999588012695,-90.0479965209961 -21.136999130249023,-81.46900177001953 -22.80699920654297,-72.87799835205078 C-22.80699920654297,-72.87799835205078 -32.33399963378906,-21.15999984741211 -32.33399963378906,-21.15999984741211 C-35.4739990234375,-3.9000000953674316 -38.90800094604492,13.319999694824219 -42.80699920654297,30.447999954223633 C-46.779998779296875,47.54800033569336 -51.016998291015625,64.65899658203125 -57.38999938964844,81.12200164794922 C-57.38999938964844,81.12200164794922 -59.165000915527344,80.43699645996094 -59.165000915527344,80.43699645996094z"/></g></g><g transform="matrix(1,0,0,1,1097.85498046875,1661.362060546875)" opacity="1" style="display: block;"><g opacity="1" transform="matrix(1,0,0,1,121.30699920654297,25.736000061035156)"><path fill="rgb(27,27,67)" fill-opacity="1" d=" M121.05699920654297,25.486000061035156 C121.05699920654297,25.486000061035156 -121.05699920654297,25.486000061035156 -121.05699920654297,25.486000061035156 C-121.05699920654297,25.486000061035156 -121.05699920654297,-25.486000061035156 -121.05699920654297,-25.486000061035156 C-121.05699920654297,-25.486000061035156 121.05699920654297,-25.486000061035156 121.05699920654297,-25.486000061035156 C121.05699920654297,-25.486000061035156 121.05699920654297,25.486000061035156 121.05699920654297,25.486000061035156z"/></g></g><g transform="matrix(1,0,0,1,1292.531982421875,1352.3709716796875)" opacity="1" style="display: block;"><g opacity="1" transform="matrix(1,0,0,1,601.4660034179688,193.36300659179688)"><path fill="rgb(255,188,150)" fill-opacity="1" d=" M118.67900085449219,65.3280029296875 C117.95700073242188,114.26100158691406 96.63300323486328,148.45399475097656 69.91500091552734,168.16299438476562 C69.91500091552734,168.16299438476562 15.673999786376953,167.31399536132812 15.673999786376953,167.31399536132812 C15.673999786376953,167.31399536132812 2.252000093460083,167.1009979248047 2.252000093460083,167.1009979248047 C2.252000093460083,167.1009979248047 1.9550000429153442,167.1009979248047 1.9550000429153442,167.1009979248047 C1.9550000429153442,167.1009979248047 -61.803001403808594,21.961000442504883 -61.803001403808594,21.961000442504883 C-61.803001403808594,21.961000442504883 -61.93000030517578,21.6200008392334 -61.93000030517578,21.6200008392334 C-61.93000030517578,21.6200008392334 -119.06099700927734,-108.44200134277344 -119.06099700927734,-108.44200134277344 C-119.06099700927734,-108.44200134277344 41.75400161743164,-168.16299438476562 41.75400161743164,-168.16299438476562 C41.75400161743164,-168.16299438476562 101.77300262451172,-20.856000900268555 101.77300262451172,-20.856000900268555 C114.09100341796875,11.722999572753906 119.06099700927734,40.4370002746582 118.67900085449219,65.3280029296875z"/></g><g opacity="1" transform="matrix(1,0,0,1,337.94000244140625,283.4729919433594)"><path fill="rgb(255,188,150)" fill-opacity="1" d=" M337.6889953613281,-83.35700225830078 C337.6889953613281,-83.35700225830078 -84.46900177001953,-36.124000549316406 -84.46900177001953,-36.124000549316406 C-84.46900177001953,-36.124000549316406 -139.39999389648438,-53.87099838256836 -139.39999389648438,-53.87099838256836 C-164.26600646972656,-61.904998779296875 -191.4969940185547,-56.96200180053711 -211.9149932861328,-40.65399932861328 C-259.81500244140625,-2.3959999084472656 -337.69000244140625,68.12300109863281 -317.5069885253906,73.79900360107422 C-283.5260009765625,83.35600280761719 -239.14599609375,65.4739990234375 -199.3040008544922,55.470001220703125 C-177.2969970703125,49.944000244140625 -154.0469970703125,52.55400085449219 -133.8520050048828,62.89799880981445 C-133.8520050048828,62.89799880981445 -106.23200225830078,77.04399871826172 -106.23200225830078,77.04399871826172 C-106.23200225830078,77.04399871826172 314.3269958496094,76.98600006103516 314.3269958496094,76.98600006103516 C314.3269958496094,76.98600006103516 337.6889953613281,-83.35700225830078 337.6889953613281,-83.35700225830078z"/></g><g opacity="1" transform="matrix(1,0,0,1,104.29399871826172,325.239013671875)"><path fill="rgb(210,133,114)" fill-opacity="1" d=" M-62.30699920654297,21.55900001525879 C-50.91400146484375,14.895999908447266 -39.349998474121094,8.571000099182129 -27.7450008392334,2.3239998817443848 C-16.17300033569336,-3.989000082015991 -4.400000095367432,-9.906000137329102 7.263000011444092,-16.040000915527344 C13.012999534606934,-19.05699920654297 19.17099952697754,-22.158000946044922 25.597999572753906,-24.38599967956543 C32.02399826049805,-26.5939998626709 38.66600036621094,-28.202999114990234 45.40700149536133,-28.945999145507812 C52.143001556396484,-29.702999114990234 58.93600082397461,-29.777999877929688 65.64900207519531,-29.176000595092773 C72.3479995727539,-28.437999725341797 78.97899627685547,-27.142000198364258 85.30699920654297,-24.96500015258789 C85.30699920654297,-24.96500015258789 84.65499877929688,-22.562000274658203 84.65499877929688,-22.562000274658203 C78.25900268554688,-23.81399917602539 71.822998046875,-24.658000946044922 65.37200164794922,-24.73200035095215 C58.93600082397461,-24.944000244140625 52.5,-24.506999969482422 46.1879997253418,-23.434999465942383 C39.875999450683594,-22.37299919128418 33.6619987487793,-20.784000396728516 27.690000534057617,-18.534000396728516 C21.656999588012695,-16.41699981689453 16.094999313354492,-13.406000137329102 10.128999710083008,-10.416000366210938 C-1.687999963760376,-4.585000038146973 -13.394000053405762,1.4639999866485596 -25.302000045776367,7.117000102996826 C-37.176998138427734,12.835000038146973 -49.090999603271484,18.475000381469727 -61.176998138427734,23.777999877929688 C-61.176998138427734,23.777999877929688 -62.30699920654297,21.55900001525879 -62.30699920654297,21.55900001525879z"/></g><g opacity="1" transform="matrix(1,0,0,1,89.64299774169922,295.5480041503906)"><path fill="rgb(210,133,114)" fill-opacity="1" d=" M-41.51300048828125,31.660999298095703 C-33.84700012207031,24.399999618530273 -25.827999114990234,17.58099937438965 -17.642000198364258,10.949000358581543 C-9.487000465393066,4.2769999504089355 -1.0770000219345093,-2.0799999237060547 7.5289998054504395,-8.1899995803833 C16.187000274658203,-14.229000091552734 24.948999404907227,-20.14900016784668 34.26300048828125,-25.27400016784668 C43.61399841308594,-30.183000564575195 53.132999420166016,-35.5369987487793 64.30599975585938,-36.582000732421875 C64.30599975585938,-36.582000732421875 64.51300048828125,-34.099998474121094 64.51300048828125,-34.099998474121094 C59.68600082397461,-32.827999114990234 54.979000091552734,-30.945999145507812 50.48899841308594,-28.336000442504883 C45.89699935913086,-26.040000915527344 41.494998931884766,-23.240999221801758 37.10599899291992,-20.48900032043457 C28.323999404907227,-14.9399995803833 19.757999420166016,-8.958999633789062 11.180999755859375,-3.00600004196167 C2.6010000705718994,2.9570000171661377 -5.820000171661377,9.168999671936035 -14.371999740600586,15.220999717712402 C-22.871000289916992,21.344999313354492 -31.34000015258789,27.538999557495117 -39.92599868774414,33.58100128173828 C-39.92599868774414,33.58100128173828 -41.51300048828125,31.660999298095703 -41.51300048828125,31.660999298095703z"/></g><g opacity="1" transform="matrix(1,0,0,1,567.3140258789062,214.2760009765625)"><path fill="rgb(210,133,114)" fill-opacity="1" d=" M-28.239999771118164,3.8919999599456787 C-28.239999771118164,3.8919999599456787 -28.395999908447266,-2.4739999771118164 -28.395999908447266,-2.4739999771118164 C-28.395999908447266,-2.4739999771118164 28.239999771118164,-3.8919999599456787 28.239999771118164,-3.8919999599456787 C28.239999771118164,-3.8919999599456787 28.395999908447266,2.4739999771118164 28.395999908447266,2.4739999771118164 C28.395999908447266,2.4739999771118164 -28.239999771118164,3.8919999599456787 -28.239999771118164,3.8919999599456787z"/></g><g opacity="1" transform="matrix(1,0,0,1,461.85699462890625,43.05099868774414)"><path fill="rgb(235,235,255)" fill-opacity="1" d=" M18.649999618530273,42.80099868774414 C18.649999618530273,42.80099868774414 -22.46299934387207,-40.92599868774414 -22.46299934387207,-40.92599868774414 C-22.46299934387207,-40.92599868774414 -18.650999069213867,-42.80099868774414 -18.650999069213867,-42.80099868774414 C-18.650999069213867,-42.80099868774414 22.46299934387207,40.92599868774414 22.46299934387207,40.92599868774414 C22.46299934387207,40.92599868774414 18.649999618530273,42.80099868774414 18.649999618530273,42.80099868774414z"/></g><g opacity="0.1" transform="matrix(1,0,0,1,667.0910034179688,308.4309997558594)"><path fill="rgb(254,91,82)" fill-opacity="1" d=" M53.053001403808594,-49.7400016784668 C52.33100128173828,-0.8069999814033508 31.006999969482422,33.38600158691406 4.289000034332275,53.095001220703125 C4.289000034332275,53.095001220703125 -49.95199966430664,52.24599838256836 -49.95199966430664,52.24599838256836 C-49.99399948120117,52.15999984741211 -49.99399948120117,52.11800003051758 -49.99399948120117,52.03300094604492 C-51.99100112915039,44.939998626708984 -53.053001403808594,37.4640007019043 -53.053001403808594,29.732999801635742 C-53.053001403808594,-5.394999980926514 -31.22100067138672,-35.382999420166016 -0.3409999907016754,-47.44599914550781 C9.003999710083008,-51.0989990234375 19.1560001373291,-53.095001220703125 29.774999618530273,-53.095001220703125 C37.84600067138672,-53.095001220703125 45.6619987487793,-51.94900131225586 53.053001403808594,-49.7400016784668z"/></g></g><g transform="matrix(1,0,0,1,683.0130004882812,415.36199951171875)" opacity="1" style="display: block;"><g opacity="1" transform="matrix(1.1036200523376465,0,0,1.1036200523376465,503.510009765625,274.76300048828125)"><path fill="rgb(255,161,33)" fill-opacity="1" d=" M-52.21099853515625,-73.06199645996094 C-45.33000183105469,-58.58700180053711 -39.06800079345703,-43.891998291015625 -32.97600173950195,-29.13599967956543 C-32.97600173950195,-29.13599967956543 -24.062000274658203,-6.923999786376953 -24.062000274658203,-6.923999786376953 C-24.062000274658203,-6.923999786376953 -15.51200008392334,15.420000076293945 -15.51200008392334,15.420000076293945 C-15.51200008392334,15.420000076293945 -28.270000457763672,11.666000366210938 -28.270000457763672,11.666000366210938 C-28.270000457763672,11.666000366210938 -6.855000019073486,-5.13700008392334 -6.855000019073486,-5.13700008392334 C0.2930000126361847,-10.725000381469727 7.586999893188477,-16.121999740600586 14.802000045776367,-21.624000549316406 C14.802000045776367,-21.624000549316406 23.527000427246094,-28.277000427246094 23.527000427246094,-28.277000427246094 C23.527000427246094,-28.277000427246094 27.559999465942383,-18.187999725341797 27.559999465942383,-18.187999725341797 C30.461000442504883,-10.927000045776367 33.1510009765625,-3.5789999961853027 35.95800018310547,3.7209999561309814 C38.737998962402344,11.031999588012695 41.3129997253418,18.42799949645996 44,25.777000427246094 C46.52899932861328,33.191001892089844 49.167999267578125,40.558998107910156 51.547000885009766,48.034000396728516 C54.012001037597656,55.4739990234375 56.3129997253418,62.98099899291992 58.46900177001953,70.5479965209961 C58.46900177001953,70.5479965209961 52.321998596191406,73.06199645996094 52.321998596191406,73.06199645996094 C48.55699920654297,66.15399932861328 44.9379997253418,59.18600082397461 41.481998443603516,52.1510009765625 C37.939998626708984,45.152000427246094 34.65800094604492,38.04600143432617 31.266000747680664,30.985000610351562 C28.033000946044922,23.858999252319336 24.687999725341797,16.780000686645508 21.547000885009766,9.616000175476074 C18.433000564575195,2.440999984741211 15.20199966430664,-4.685999870300293 12.182999610900879,-11.89900016784668 C12.182999610900879,-11.89900016784668 24.940000534057617,-8.46399974822998 24.940000534057617,-8.46399974822998 C17.77899932861328,-2.8919999599456787 10.699999809265137,2.7839999198913574 3.4730000495910645,8.270000457763672 C3.4730000495910645,8.270000457763672 -18.239999771118164,24.687000274658203 -18.239999771118164,24.687000274658203 C-18.239999771118164,24.687000274658203 -27.45800018310547,31.658000946044922 -27.45800018310547,31.658000946044922 C-27.45800018310547,31.658000946044922 -30.996000289916992,20.93199920654297 -30.996000289916992,20.93199920654297 C-30.996000289916992,20.93199920654297 -38.49100112915039,-1.7860000133514404 -38.49100112915039,-1.7860000133514404 C-38.49100112915039,-1.7860000133514404 -45.61899948120117,-24.63599967956543 -45.61899948120117,-24.63599967956543 C-50.22200012207031,-39.92100143432617 -54.654998779296875,-55.268001556396484 -58.46900177001953,-70.83499908447266 C-58.46900177001953,-70.83499908447266 -52.21099853515625,-73.06199645996094 -52.21099853515625,-73.06199645996094z"/></g><g opacity="0" transform="matrix(1,0,0,1,998.4130249023438,319.364013671875)"><path fill="rgb(255,161,33)" fill-opacity="1" d=" M58.46900177001953,-70.83499908447266 C54.65599822998047,-55.268001556396484 50.22100067138672,-39.92100143432617 45.61800003051758,-24.635000228881836 C45.61800003051758,-24.635000228881836 38.49100112915039,-1.7860000133514404 38.49100112915039,-1.7860000133514404 C38.49100112915039,-1.7860000133514404 30.996000289916992,20.93199920654297 30.996000289916992,20.93199920654297 C30.996000289916992,20.93199920654297 27.45800018310547,31.656999588012695 27.45800018310547,31.656999588012695 C27.45800018310547,31.656999588012695 18.239999771118164,24.687000274658203 18.239999771118164,24.687000274658203 C18.239999771118164,24.687000274658203 -3.4730000495910645,8.269000053405762 -3.4730000495910645,8.269000053405762 C-10.699000358581543,2.7839999198913574 -17.77899932861328,-2.8929998874664307 -24.940000534057617,-8.46399974822998 C-24.940000534057617,-8.46399974822998 -12.184000015258789,-11.899999618530273 -12.184000015258789,-11.899999618530273 C-15.20300006866455,-4.685999870300293 -18.433000564575195,2.440999984741211 -21.547000885009766,9.614999771118164 C-24.687999725341797,16.77899932861328 -28.034000396728516,23.858999252319336 -31.267000198364258,30.983999252319336 C-34.659000396728516,38.04499816894531 -37.939998626708984,45.1510009765625 -41.481998443603516,52.1510009765625 C-44.9370002746582,59.18600082397461 -48.55699920654297,66.15299987792969 -52.321998596191406,73.06199645996094 C-52.321998596191406,73.06199645996094 -58.46900177001953,70.5469970703125 -58.46900177001953,70.5469970703125 C-56.3129997253418,62.98099899291992 -54.012001037597656,55.4739990234375 -51.547000885009766,48.034000396728516 C-49.167999267578125,40.558998107910156 -46.52799987792969,33.189998626708984 -44,25.775999069213867 C-41.3129997253418,18.427000045776367 -38.737998962402344,11.031999588012695 -35.95800018310547,3.7209999561309814 C-33.1510009765625,-3.5789999961853027 -30.461000442504883,-10.927000045776367 -27.55900001525879,-18.187999725341797 C-27.55900001525879,-18.187999725341797 -23.527999877929688,-28.277999877929688 -23.527999877929688,-28.277999877929688 C-23.527999877929688,-28.277999877929688 -14.803000450134277,-21.624000549316406 -14.803000450134277,-21.624000549316406 C-7.5879998207092285,-16.121999740600586 -0.2930000126361847,-10.72599983215332 6.855000019073486,-5.138000011444092 C6.855000019073486,-5.138000011444092 28.268999099731445,11.664999961853027 28.268999099731445,11.664999961853027 C28.268999099731445,11.664999961853027 15.51200008392334,15.418999671936035 15.51200008392334,15.418999671936035 C15.51200008392334,15.418999671936035 24.06100082397461,-6.923999786376953 24.06100082397461,-6.923999786376953 C24.06100082397461,-6.923999786376953 32.97600173950195,-29.13599967956543 32.97600173950195,-29.13599967956543 C39.06800079345703,-43.891998291015625 45.32899856567383,-58.58700180053711 52.21099853515625,-73.06199645996094 C52.21099853515625,-73.06199645996094 58.46900177001953,-70.83499908447266 58.46900177001953,-70.83499908447266z"/></g><g opacity="1" transform="matrix(1,0,0,1,249.78900146484375,1105.0159912109375)"><path fill="rgb(235,235,255)" fill-opacity="1" d=" M247.4239959716797,192.2050018310547 C247.4239959716797,192.2050018310547 -136.98599243164062,192.2050018310547 -136.98599243164062,192.2050018310547 C-136.98599243164062,192.2050018310547 -247.4239959716797,-192.2050018310547 -247.4239959716797,-192.2050018310547 C-247.4239959716797,-192.2050018310547 136.98599243164062,-192.2050018310547 136.98599243164062,-192.2050018310547 C136.98599243164062,-192.2050018310547 247.4239959716797,192.2050018310547 247.4239959716797,192.2050018310547z"/></g><g opacity="1" transform="matrix(1,0,0,1,59.71200180053711,1104.43798828125)"><path fill="rgb(27,27,67)" fill-opacity="1" d=" M51.560001373291016,193.22300720214844 C51.560001373291016,193.22300720214844 -59.46200180053711,-193.2220001220703 -59.46200180053711,-193.2220001220703 C-59.46200180053711,-193.2220001220703 59.46200180053711,-193.2220001220703 59.46200180053711,-193.2220001220703 C59.46200180053711,-193.2220001220703 59.46200180053711,-190.03500366210938 59.46200180053711,-190.03500366210938 C59.46200180053711,-190.03500366210938 -55.23099899291992,-190.03500366210938 -55.23099899291992,-190.03500366210938 C-55.23099899291992,-190.03500366210938 54.62300109863281,192.33999633789062 54.62300109863281,192.33999633789062 C54.62300109863281,192.33999633789062 51.560001373291016,193.22300720214844 51.560001373291016,193.22300720214844z"/></g><g opacity="1" transform="matrix(1,0,0,1,333.73699951171875,1033.949951171875)"><path fill="rgb(27,27,67)" fill-opacity="1" d=" M122.3030014038086,122.73400115966797 C122.3030014038086,122.73400115966797 51.840999603271484,-119.5469970703125 51.840999603271484,-119.5469970703125 C51.840999603271484,-119.5469970703125 -125.36100006103516,-119.5469970703125 -125.36100006103516,-119.5469970703125 C-125.36100006103516,-119.5469970703125 -125.36100006103516,-122.73400115966797 -125.36100006103516,-122.73400115966797 C-125.36100006103516,-122.73400115966797 54.231998443603516,-122.73400115966797 54.231998443603516,-122.73400115966797 C54.231998443603516,-122.73400115966797 125.36100006103516,121.84300231933594 125.36100006103516,121.84300231933594 C125.36100006103516,121.84300231933594 122.3030014038086,122.73400115966797 122.3030014038086,122.73400115966797z"/></g></g><g transform="matrix(1,0,0,1,2160.95703125,1494.6409912109375)" opacity="1" style="display: block;"><g opacity="1" transform="matrix(1,0,0,1,168.08700561523438,99.25399780273438)"><path fill="rgb(51,53,207)" fill-opacity="1" d=" M-0.0020000000949949026,53.03300094604492 C-31.30699920654297,53.03300094604492 -56.77299880981445,29.243999481201172 -56.77299880981445,0 C-56.77299880981445,-29.243000030517578 -31.30699920654297,-53.03300094604492 -0.0020000000949949026,-53.03300094604492 C31.30299949645996,-53.03300094604492 56.77299880981445,-29.243000030517578 56.77299880981445,0 C56.77299880981445,29.243999481201172 31.30299949645996,53.03300094604492 -0.0020000000949949026,53.03300094604492z M-0.0020000000949949026,-33.26300048828125 C-20.402000427246094,-33.26300048828125 -37.00299835205078,-18.341999053955078 -37.00299835205078,0 C-37.00299835205078,18.343000411987305 -20.402000427246094,33.263999938964844 -0.0020000000949949026,33.263999938964844 C20.402000427246094,33.263999938964844 37.00299835205078,18.343000411987305 37.00299835205078,0 C37.00299835205078,-18.341999053955078 20.402000427246094,-33.26300048828125 -0.0020000000949949026,-33.26300048828125z"/></g><g opacity="1" transform="matrix(1,0,0,1,85.9530029296875,110.15899658203125)"><path fill="rgb(255,255,255)" fill-opacity="1" d=" M62.12200164794922,107.78299713134766 C62.12200164794922,107.78299713134766 -62.12099838256836,107.78299713134766 -62.12099838256836,107.78299713134766 C-62.12099838256836,107.78299713134766 -83.35900115966797,-107.78299713134766 -83.35900115966797,-107.78299713134766 C-83.35900115966797,-107.78299713134766 83.35900115966797,-107.78299713134766 83.35900115966797,-107.78299713134766 C83.35900115966797,-107.78299713134766 62.12200164794922,107.78299713134766 62.12200164794922,107.78299713134766z"/></g><g opacity="1" transform="matrix(1,0,0,1,85.9530029296875,110.15799713134766)"><path fill="rgb(51,53,207)" fill-opacity="1" d=" M64.0469970703125,109.90799713134766 C64.0469970703125,109.90799713134766 -64.0469970703125,109.90799713134766 -64.0469970703125,109.90799713134766 C-64.0469970703125,109.90799713134766 -85.7030029296875,-109.90799713134766 -85.7030029296875,-109.90799713134766 C-85.7030029296875,-109.90799713134766 85.7030029296875,-109.90799713134766 85.7030029296875,-109.90799713134766 C85.7030029296875,-109.90799713134766 64.0469970703125,109.90799713134766 64.0469970703125,109.90799713134766z M-60.19499969482422,105.65799713134766 C-60.19499969482422,105.65799713134766 60.19599914550781,105.65799713134766 60.19599914550781,105.65799713134766 C60.19599914550781,105.65799713134766 81.01599884033203,-105.65799713134766 81.01599884033203,-105.65799713134766 C81.01599884033203,-105.65799713134766 -81.01499938964844,-105.65799713134766 -81.01499938964844,-105.65799713134766 C-81.01499938964844,-105.65799713134766 -60.19499969482422,105.65799713134766 -60.19499969482422,105.65799713134766z"/></g><g opacity="1" transform="matrix(1,0,0,1,85.9530029296875,132.45899963378906)"><path fill="rgb(235,235,255)" fill-opacity="1" d=" M40.507999420166016,67.56600189208984 C40.507999420166016,67.56600189208984 -40.507999420166016,67.56600189208984 -40.507999420166016,67.56600189208984 C-40.507999420166016,67.56600189208984 -54.356998443603516,-67.56600189208984 -54.356998443603516,-67.56600189208984 C-54.356998443603516,-67.56600189208984 54.356998443603516,-67.56600189208984 54.356998443603516,-67.56600189208984 C54.356998443603516,-67.56600189208984 40.507999420166016,67.56600189208984 40.507999420166016,67.56600189208984z"/></g></g><g transform="matrix(1,0,0,1,456.465087890625,1709.0390625)" opacity="1" style="display: block;"><g opacity="1" transform="matrix(1,0,0,1,1046.5799560546875,3.437999963760376)"><path fill="rgb(27,27,67)" fill-opacity="1" d=" M1046.3299560546875,3.187999963760376 C1046.3299560546875,3.187999963760376 -1046.3299560546875,3.187999963760376 -1046.3299560546875,3.187999963760376 C-1046.3299560546875,3.187999963760376 -1046.3299560546875,-3.187999963760376 -1046.3299560546875,-3.187999963760376 C-1046.3299560546875,-3.187999963760376 1046.3299560546875,-3.187999963760376 1046.3299560546875,-3.187999963760376 C1046.3299560546875,-3.187999963760376 1046.3299560546875,3.187999963760376 1046.3299560546875,3.187999963760376z"/></g></g><g transform="matrix(1,0,0,1,1500,1000)" opacity="1" style="display: block;"><g opacity="0.4" transform="matrix(1,0,0,1,0,0)"/><g opacity="1" transform="matrix(1,0,0,1,0,0)"><path stroke-linecap="butt" stroke-linejoin="miter" fill-opacity="0" stroke-miterlimit="4" stroke="rgb(27,27,67)" stroke-opacity="1" stroke-width="4" d=" M35.7760009765625,-418.1659851074219 C41.50299835205078,-422.0480041503906 44.404998779296875,-426.4440002441406 42.5,-430 C35,-444 -26.28499984741211,-465.7770080566406 -17.5,-338"/></g></g></g></svg>